<svg fill="none" height="20" viewBox="0 0 41 20" width="41" xmlns="http://www.w3.org/2000/svg">
    <path
        d="M38.5437 0H2.33543C1.04739 0 0 1.04827 0 2.33631V17.6642C0 18.9522 1.04739 20 2.33543 20H38.5437C39.8318 20 40.88 18.9522 40.88 17.6642V2.33631C40.88 1.04827 39.8318 0 38.5437 0Z"
        fill="#E6B91E" />
    <path clip-rule="evenodd" d="M5.88599 4.2356H8.91119V15.9003H5.88599V4.2356Z"
        fill="white" fill-rule="evenodd" />
    <path clip-rule="evenodd" d="M15.3677 4.23592L14.6668 9.6867L14.2367 6.72401C14.1069 5.77411 13.9882 4.94286 13.8696 4.23584H9.94543V15.9005H12.597L12.6087 8.19977L13.7225 15.9005H15.6111L16.674 8.03018L16.6795 15.9005H19.3252V4.23592H15.3677Z"
        fill="white"
        fill-rule="evenodd" />
    <path clip-rule="evenodd" d="M24.0297 15.9005C24.7536 15.9005 25.2962 15.8609 25.6586 15.7819C26.0141 15.7029 26.3199 15.5671 26.5628 15.3634C26.8061 15.165 26.9816 14.8885 27.0774 14.5378C27.1792 14.1875 27.2357 13.4865 27.2357 12.4404V8.34676C27.2357 7.2442 27.1904 6.50348 27.1283 6.12479C27.0606 5.75168 26.8911 5.40659 26.6193 5.10159C26.3536 4.79578 25.958 4.57534 25.4434 4.44032C24.9288 4.30443 24.0807 4.23584 22.6162 4.23584H20.3601V15.9005H24.0297ZM24.0582 6.33964C24.1764 6.40735 24.2562 6.51522 24.2903 6.66748C24.324 6.81456 24.3413 7.15365 24.3413 7.6795V12.1968C24.3413 12.9776 24.2903 13.4525 24.1881 13.6281C24.0867 13.8033 23.821 13.8878 23.3854 13.8878V6.23265C23.7131 6.23265 23.9391 6.26627 24.0582 6.33964Z"
        fill="white"
        fill-rule="evenodd" />
    <path clip-rule="evenodd" d="M28.2646 4.23584V15.9005H30.9904L31.1824 15.1599C31.4253 15.4597 31.697 15.6797 31.9965 15.8328C32.985 16.3157 34.6634 15.9832 34.9824 14.7863C35.0786 14.4421 35.1239 13.9219 35.1239 13.226V9.95282C35.1239 9.24636 35.1122 8.78782 35.0786 8.57344C34.9946 8.038 34.6197 7.59431 34.1283 7.38536C33.5028 7.1194 32.6098 7.11653 31.9908 7.40867C31.6971 7.54409 31.4253 7.75336 31.1824 8.03026V4.23592L28.2646 4.23584ZM32.2061 13.0738C32.2061 13.6337 32.1776 13.9952 32.1211 14.1422C32.0646 14.2893 31.8213 14.3622 31.6345 14.3622C31.4542 14.3622 31.3347 14.2949 31.2731 14.1482C31.2166 14.0067 31.1825 13.6789 31.1825 13.1643V10.0826C31.1825 9.55064 31.2105 9.22281 31.2618 9.08699C31.3184 8.95716 31.4369 8.88946 31.6121 8.88946C31.7985 8.88946 32.0469 8.96882 32.1099 9.11589C32.172 9.26816 32.2061 9.59081 32.2061 10.0826V13.0738H32.2061Z"
        fill="white"
        fill-rule="evenodd" />
</svg>
