<svg width="25" height="24" viewBox="0 0 25 24" fill="none" xmlns="http://www.w3.org/2000/svg">
<path d="M6.93242 14.0863L6.23625 16.6852L3.69176 16.739C2.93133 15.3286 2.5 13.7149 2.5 12C2.5 10.3418 2.90328 8.77804 3.61812 7.40112H3.61867L5.88398 7.81644L6.87633 10.0682C6.66863 10.6737 6.55543 11.3237 6.55543 12C6.55551 12.7341 6.68848 13.4374 6.93242 14.0863Z" fill="white"/>
<path d="M22.3253 10.1318C22.4401 10.7368 22.5 11.3615 22.5 12C22.5 12.7159 22.4247 13.4143 22.2813 14.0879C21.7945 16.3802 20.5225 18.3818 18.7605 19.7983L18.7599 19.7978L15.9066 19.6522L15.5028 17.1313C16.672 16.4456 17.5858 15.3725 18.0671 14.0879H12.7198V10.1318H18.1451H22.3253Z" fill="white"/>
<path d="M18.7599 19.7978L18.7604 19.7984C17.0467 21.1758 14.8698 22 12.5 22C8.69177 22 5.3808 19.8715 3.69177 16.739L6.93244 14.0863C7.77693 16.3401 9.95111 17.9445 12.5 17.9445C13.5956 17.9445 14.622 17.6484 15.5027 17.1313L18.7599 19.7978Z" fill="white"/>
<path d="M18.8829 4.30219L15.6434 6.95437C14.7319 6.38461 13.6544 6.05547 12.5 6.05547C9.89338 6.05547 7.67853 7.73348 6.87635 10.0681L3.61865 7.40109H3.6181C5.2824 4.1923 8.63513 2 12.5 2C14.9263 2 17.1511 2.8643 18.8829 4.30219Z" fill="white"/>
</svg>
