<svg width="25" height="24" viewBox="0 0 25 24" fill="none" xmlns="http://www.w3.org/2000/svg">
<path d="M22.8333 12C22.8333 16.9914 19.1763 21.1285 14.3958 21.8785V14.8906H16.7259L17.1693 12H14.3958V10.1242C14.3958 9.3332 14.7833 8.5625 16.0255 8.5625H17.2864V6.10156C17.2864 6.10156 16.1419 5.90625 15.0478 5.90625C12.7638 5.90625 11.2708 7.29063 11.2708 9.79688V12H8.73175V14.8906H11.2708V21.8785C6.49034 21.1285 2.83331 16.9914 2.83331 12C2.83331 6.47734 7.31066 2 12.8333 2C18.356 2 22.8333 6.47734 22.8333 12Z" fill="white"/>
<path d="M16.7259 14.8906L17.1693 12H14.3958V10.1242C14.3958 9.33336 14.7832 8.5625 16.0255 8.5625H17.2864V6.10156C17.2864 6.10156 16.1421 5.90625 15.048 5.90625C12.7637 5.90625 11.2708 7.29063 11.2708 9.79688V12H8.73175V14.8906H11.2708V21.8785C11.78 21.9584 12.3018 22 12.8333 22C13.3649 22 13.8867 21.9584 14.3958 21.8785V14.8906H16.7259Z" fill="#282828"/>
</svg>
