<svg width="25" height="24" viewBox="0 0 25 24" fill="none" xmlns="http://www.w3.org/2000/svg">
<path d="M16.0156 2C16.0622 2 16.1087 2 16.1579 2C16.2721 3.41044 15.7337 4.46432 15.0794 5.22751C14.4374 5.98542 13.5583 6.7205 12.1365 6.60897C12.0416 5.21872 12.5809 4.24301 13.2343 3.48158C13.8403 2.77197 14.9512 2.14052 16.0156 2Z" fill="white"/>
<path d="M20.3198 16.6805C20.3198 16.6945 20.3198 16.7068 20.3198 16.72C19.9202 17.9302 19.3502 18.9674 18.6547 19.9299C18.0197 20.8038 17.2416 21.9797 15.8522 21.9797C14.6517 21.9797 13.8542 21.2078 12.6238 21.1867C11.3223 21.1656 10.6065 21.8322 9.41654 21.9999C9.28041 21.9999 9.14429 21.9999 9.01079 21.9999C8.13695 21.8735 7.43173 21.1814 6.91796 20.5579C5.40301 18.7153 4.23233 16.3353 4.01453 13.2896C4.01453 12.991 4.01453 12.6933 4.01453 12.3947C4.10674 10.2149 5.16589 8.44266 6.5737 7.58374C7.31668 7.12706 8.33807 6.73801 9.47538 6.9119C9.9628 6.98742 10.4608 7.15429 10.8972 7.3194C11.3109 7.47836 11.8282 7.76027 12.3182 7.74534C12.6502 7.73568 12.9804 7.56267 13.315 7.44059C14.2951 7.08667 15.2559 6.68092 16.5223 6.8715C18.0443 7.10159 19.1245 7.77783 19.792 8.82118C18.5045 9.64057 17.4866 10.8754 17.6605 12.984C17.8151 14.8994 18.9287 16.0201 20.3198 16.6805Z" fill="white"/>
</svg>
