<svg fill="none" height="34" viewBox="0 0 166 34" width="166" xmlns="http://www.w3.org/2000/svg">
    <rect fill="url(#paint0_linear_7563_1841)" height="34" rx="5" width="166" />
    <path
        d="M10.1681 7.057H14.812C16.4264 7.057 17.604 7.43687 18.3447 8.1966C19.0855 8.93734 19.4558 10.0864 19.4558 11.6439V12.869C19.4558 14.9392 18.7721 16.2498 17.4046 16.8006V16.8576C18.1643 17.0855 18.6961 17.5508 19 18.2536C19.3229 18.9563 19.4843 19.8965 19.4843 21.0741V24.5783C19.4843 25.1481 19.5033 25.6135 19.5413 25.9744C19.5793 26.3162 19.6743 26.6581 19.8262 27H16.6353C16.5214 26.6771 16.4454 26.3732 16.4074 26.0883C16.3694 25.8034 16.3504 25.2906 16.3504 24.5499V20.9031C16.3504 19.9915 16.1985 19.3552 15.8946 18.9943C15.6097 18.6334 15.1064 18.453 14.3846 18.453H13.302V27H10.1681V7.057ZM14.4416 15.604C15.0684 15.604 15.5337 15.4426 15.8376 15.1197C16.1605 14.7968 16.3219 14.2555 16.3219 13.4957V11.9573C16.3219 11.2355 16.189 10.7132 15.9231 10.3903C15.6762 10.0674 15.2773 9.906 14.7265 9.906H13.302V15.604H14.4416ZM24.6501 7.057H28.8951L32.143 27H29.0091L28.4393 23.0399V23.0969H24.8781L24.3083 27H21.4023L24.6501 7.057ZM28.0689 20.3903L26.6729 10.5328H26.6159L25.2484 20.3903H28.0689ZM35.3757 9.906H32.0994V7.057H41.786V9.906H38.5096V27H35.3757V9.906ZM43.8731 7.057H47.007V27H43.8731V7.057ZM49.9239 7.057H53.8555L56.9039 18.9943H56.9609V7.057H59.7529V27H56.5336L52.7729 12.4416H52.7159V27H49.9239V7.057ZM67.0965 27.2849C65.577 27.2849 64.4184 26.8576 63.6207 26.0029C62.823 25.1292 62.4241 23.8851 62.4241 22.2707V11.7863C62.4241 10.1719 62.823 8.93734 63.6207 8.08264C64.4184 7.20895 65.577 6.7721 67.0965 6.7721C68.6159 6.7721 69.7745 7.20895 70.5722 8.08264C71.37 8.93734 71.7688 10.1719 71.7688 11.7863V13.4957H68.8059V11.5869C68.8059 10.2764 68.2645 9.6211 67.1819 9.6211C66.0993 9.6211 65.558 10.2764 65.558 11.5869V22.4986C65.558 23.7901 66.0993 24.4359 67.1819 24.4359C68.2645 24.4359 68.8059 23.7901 68.8059 22.4986V18.5954H67.2389V15.7464H71.7688V22.2707C71.7688 23.8851 71.37 25.1292 70.5722 26.0029C69.7745 26.8576 68.6159 27.2849 67.0965 27.2849ZM78.4248 27.2849C76.9053 27.2849 75.7562 26.8576 74.9775 26.0029C74.1988 25.1292 73.8094 23.8851 73.8094 22.2707V21.1311H76.7724V22.4986C76.7724 23.7901 77.3137 24.4359 78.3963 24.4359C78.9281 24.4359 79.327 24.284 79.5929 23.9801C79.8778 23.6572 80.0202 23.1444 80.0202 22.4416C80.0202 21.6059 79.8303 20.8746 79.4504 20.2479C79.0706 19.6021 78.3678 18.8329 77.3422 17.9402C76.0506 16.8006 75.1484 15.7749 74.6356 14.8633C74.1228 13.9326 73.8664 12.888 73.8664 11.7294C73.8664 10.1529 74.2652 8.93734 75.063 8.08264C75.8607 7.20895 77.0193 6.7721 78.5387 6.7721C80.0392 6.7721 81.1693 7.20895 81.9291 8.08264C82.7078 8.93734 83.0971 10.1719 83.0971 11.7863V12.6126H80.1342V11.5869C80.1342 10.9031 80.0012 10.4093 79.7353 10.1054C79.4694 9.78254 79.0801 9.6211 78.5672 9.6211C77.5226 9.6211 77.0003 10.2574 77.0003 11.5299C77.0003 12.2517 77.1902 12.9259 77.5701 13.5527C77.9689 14.1795 78.6812 14.9392 79.7068 15.8319C81.0174 16.9715 81.9196 18.0067 82.4134 18.9373C82.9072 19.868 83.1541 20.9601 83.1541 22.2137C83.1541 23.8471 82.7458 25.1007 81.9291 25.9744C81.1313 26.8481 79.9632 27.2849 78.4248 27.2849Z"
        fill="white" />
    <path
        d="M10.1681 7.057V6.507H9.61809V7.057H10.1681ZM18.3447 8.1966L17.9509 8.58059L17.9558 8.58551L18.3447 8.1966ZM17.4046 16.8006L17.1991 16.2904L16.8546 16.4292V16.8006H17.4046ZM17.4046 16.8576H16.8546V17.2668L17.2465 17.3844L17.4046 16.8576ZM19 18.2536L18.495 18.4719L18.5002 18.4832L19 18.2536ZM19.5413 25.9744L18.9943 26.0319L18.9947 26.0351L19.5413 25.9744ZM19.8262 27V27.55H20.6725L20.3288 26.7766L19.8262 27ZM16.6353 27L16.1167 27.1831L16.2462 27.55H16.6353V27ZM15.8946 18.9943L15.4629 19.3351L15.4683 19.3419L15.4739 19.3486L15.8946 18.9943ZM13.302 18.453V17.903H12.752V18.453H13.302ZM13.302 27V27.55H13.852V27H13.302ZM10.1681 27H9.61809V27.55H10.1681V27ZM15.8376 15.1197L15.4487 14.7308L15.4428 14.7367L15.4371 14.7427L15.8376 15.1197ZM15.9231 10.3903L15.4862 10.7244L15.4922 10.7323L15.4985 10.74L15.9231 10.3903ZM13.302 9.906V9.356H12.752V9.906H13.302ZM13.302 15.604H12.752V16.154H13.302V15.604ZM10.1681 7.057V7.607H14.812V7.057V6.507H10.1681V7.057ZM14.812 7.057V7.607C16.3544 7.607 17.357 7.97139 17.9509 8.58055L18.3447 8.1966L18.7385 7.81264C17.851 6.90234 16.4984 6.507 14.812 6.507V7.057ZM18.3447 8.1966L17.9558 8.58551C18.5525 9.18218 18.9058 10.1619 18.9058 11.6439H19.4558H20.0058C20.0058 10.011 19.6184 8.6925 18.7336 7.80769L18.3447 8.1966ZM19.4558 11.6439H18.9058V12.869H19.4558H20.0058V11.6439H19.4558ZM19.4558 12.869H18.9058C18.9058 13.8489 18.7432 14.5985 18.4554 15.1502C18.1739 15.6896 17.761 16.0641 17.1991 16.2904L17.4046 16.8006L17.61 17.3108C18.4157 16.9863 19.0283 16.43 19.4306 15.659C19.8266 14.9001 20.0058 13.9592 20.0058 12.869H19.4558ZM17.4046 16.8006H16.8546V16.8576H17.4046H17.9546V16.8006H17.4046ZM17.4046 16.8576L17.2465 17.3844C17.8572 17.5676 18.2583 17.9241 18.4952 18.4719L19 18.2536L19.5048 18.0353C19.1339 17.1775 18.4713 16.6034 17.5626 16.3308L17.4046 16.8576ZM19 18.2536L18.5002 18.4832C18.7773 19.0862 18.9343 19.9383 18.9343 21.0741H19.4843H20.0343C20.0343 19.8547 19.8685 18.8264 19.4998 18.0239L19 18.2536ZM19.4843 21.0741H18.9343V24.5783H19.4843H20.0343V21.0741H19.4843ZM19.4843 24.5783H18.9343C18.9343 25.1579 18.9535 25.6444 18.9943 26.0319L19.5413 25.9744L20.0883 25.9168C20.0531 25.5826 20.0343 25.1384 20.0343 24.5783H19.4843ZM19.5413 25.9744L18.9947 26.0351C19.0394 26.4378 19.1507 26.8344 19.3236 27.2234L19.8262 27L20.3288 26.7766C20.1978 26.4819 20.1192 26.1947 20.0879 25.9136L19.5413 25.9744ZM19.8262 27V26.45H16.6353V27V27.55H19.8262V27ZM16.6353 27L17.154 26.8169C17.0503 26.5233 16.9847 26.2566 16.9526 26.0156L16.4074 26.0883L15.8622 26.161C15.9061 26.4898 15.9924 26.831 16.1167 27.1831L16.6353 27ZM16.4074 26.0883L16.9526 26.0156C16.92 25.7714 16.9004 25.2925 16.9004 24.5499H16.3504H15.8004C15.8004 25.2887 15.8188 25.8354 15.8622 26.161L16.4074 26.0883ZM16.3504 24.5499H16.9004V20.9031H16.3504H15.8004V24.5499H16.3504ZM16.3504 20.9031H16.9004C16.9004 19.9661 16.7515 19.158 16.3153 18.64L15.8946 18.9943L15.4739 19.3486C15.6455 19.5524 15.8004 20.0169 15.8004 20.9031H16.3504ZM15.8946 18.9943L16.3263 18.6535C15.8891 18.0997 15.178 17.903 14.3846 17.903V18.453V19.003C15.0347 19.003 15.3303 19.1671 15.4629 19.3351L15.8946 18.9943ZM14.3846 18.453V17.903H13.302V18.453V19.003H14.3846V18.453ZM13.302 18.453H12.752V27H13.302H13.852V18.453H13.302ZM13.302 27V26.45H10.1681V27V27.55H13.302V27ZM10.1681 27H10.7181V7.057H10.1681H9.61809V27H10.1681ZM14.4416 15.604V16.154C15.156 16.154 15.7933 15.9692 16.2381 15.4966L15.8376 15.1197L15.4371 14.7427C15.2741 14.9159 14.9807 15.054 14.4416 15.054V15.604ZM15.8376 15.1197L16.2265 15.5086C16.703 15.0321 16.8719 14.3097 16.8719 13.4957H16.3219H15.7719C15.7719 14.2012 15.618 14.5615 15.4487 14.7308L15.8376 15.1197ZM16.3219 13.4957H16.8719V11.9573H16.3219H15.7719V13.4957H16.3219ZM16.3219 11.9573H16.8719C16.8719 11.1919 16.7355 10.5116 16.3476 10.0407L15.9231 10.3903L15.4985 10.74C15.6425 10.9148 15.7719 11.2792 15.7719 11.9573H16.3219ZM15.9231 10.3903L16.36 10.0562C15.9749 9.55262 15.3833 9.356 14.7265 9.356V9.906V10.456C15.1713 10.456 15.3775 10.5823 15.4862 10.7244L15.9231 10.3903ZM14.7265 9.906V9.356H13.302V9.906V10.456H14.7265V9.906ZM13.302 9.906H12.752V15.604H13.302H13.852V9.906H13.302ZM13.302 15.604V16.154H14.4416V15.604V15.054H13.302V15.604ZM24.6501 7.057V6.507H24.1825L24.1073 6.96859L24.6501 7.057ZM28.8951 7.057L29.438 6.96859L29.3628 6.507H28.8951V7.057ZM32.143 27V27.55H32.7898L32.6859 26.9116L32.143 27ZM29.0091 27L28.4647 27.0783L28.5326 27.55H29.0091V27ZM28.4393 23.0399L28.9837 22.9616L27.8893 23.0399H28.4393ZM28.4393 23.0969V23.6469H28.9893V23.0969H28.4393ZM24.8781 23.0969V22.5469H24.4025L24.3338 23.0174L24.8781 23.0969ZM24.3083 27V27.55H24.7838L24.8525 27.0794L24.3083 27ZM21.4023 27L20.8594 26.9116L20.7555 27.55H21.4023V27ZM28.0689 20.3903V20.9403H28.7023L28.6135 20.3132L28.0689 20.3903ZM26.6729 10.5328L27.2175 10.4557L27.1505 9.98278H26.6729V10.5328ZM26.6159 10.5328V9.98278H26.137L26.0712 10.4572L26.6159 10.5328ZM25.2484 20.3903L24.7036 20.3147L24.6169 20.9403H25.2484V20.3903ZM24.6501 7.057V7.607H28.8951V7.057V6.507H24.6501V7.057ZM28.8951 7.057L28.3523 7.14541L31.6002 27.0884L32.143 27L32.6859 26.9116L29.438 6.96859L28.8951 7.057ZM32.143 27V26.45H29.0091V27V27.55H32.143V27ZM29.0091 27L29.5535 26.9217L28.9837 22.9616L28.4393 23.0399L27.8949 23.1182L28.4647 27.0783L29.0091 27ZM28.4393 23.0399H27.8893V23.0969H28.4393H28.9893V23.0399H28.4393ZM28.4393 23.0969V22.5469H24.8781V23.0969V23.6469H28.4393V23.0969ZM24.8781 23.0969L24.3338 23.0174L23.764 26.9206L24.3083 27L24.8525 27.0794L25.4223 23.1763L24.8781 23.0969ZM24.3083 27V26.45H21.4023V27V27.55H24.3083V27ZM21.4023 27L21.9451 27.0884L25.193 7.14541L24.6501 7.057L24.1073 6.96859L20.8594 26.9116L21.4023 27ZM28.0689 20.3903L28.6135 20.3132L27.2175 10.4557L26.6729 10.5328L26.1284 10.6099L27.5244 20.4674L28.0689 20.3903ZM26.6729 10.5328V9.98278H26.6159V10.5328V11.0828H26.6729V10.5328ZM26.6159 10.5328L26.0712 10.4572L24.7036 20.3147L25.2484 20.3903L25.7932 20.4659L27.1607 10.6084L26.6159 10.5328ZM25.2484 20.3903V20.9403H28.0689V20.3903V19.8403H25.2484V20.3903ZM35.3757 9.906H35.9257V9.356H35.3757V9.906ZM32.0994 9.906H31.5494V10.456H32.0994V9.906ZM32.0994 7.057V6.507H31.5494V7.057H32.0994ZM41.786 7.057H42.336V6.507H41.786V7.057ZM41.786 9.906V10.456H42.336V9.906H41.786ZM38.5096 9.906V9.356H37.9596V9.906H38.5096ZM38.5096 27V27.55H39.0596V27H38.5096ZM35.3757 27H34.8257V27.55H35.3757V27ZM35.3757 9.906V9.356H32.0994V9.906V10.456H35.3757V9.906ZM32.0994 9.906H32.6494V7.057H32.0994H31.5494V9.906H32.0994ZM32.0994 7.057V7.607H41.786V7.057V6.507H32.0994V7.057ZM41.786 7.057H41.236V9.906H41.786H42.336V7.057H41.786ZM41.786 9.906V9.356H38.5096V9.906V10.456H41.786V9.906ZM38.5096 9.906H37.9596V27H38.5096H39.0596V9.906H38.5096ZM38.5096 27V26.45H35.3757V27V27.55H38.5096V27ZM35.3757 27H35.9257V9.906H35.3757H34.8257V27H35.3757ZM43.8731 7.057V6.507H43.3231V7.057H43.8731ZM47.007 7.057H47.557V6.507H47.007V7.057ZM47.007 27V27.55H47.557V27H47.007ZM43.8731 27H43.3231V27.55H43.8731V27ZM43.8731 7.057V7.607H47.007V7.057V6.507H43.8731V7.057ZM47.007 7.057H46.457V27H47.007H47.557V7.057H47.007ZM47.007 27V26.45H43.8731V27V27.55H47.007V27ZM43.8731 27H44.4231V7.057H43.8731H43.3231V27H43.8731ZM49.9239 7.057V6.507H49.3739V7.057H49.9239ZM53.8555 7.057L54.3884 6.92091L54.2827 6.507H53.8555V7.057ZM56.9039 18.9943L56.371 19.1304L56.4767 19.5443H56.9039V18.9943ZM56.9609 18.9943V19.5443H57.5109V18.9943H56.9609ZM56.9609 7.057V6.507H56.4109V7.057H56.9609ZM59.7529 7.057H60.3029V6.507H59.7529V7.057ZM59.7529 27V27.55H60.3029V27H59.7529ZM56.5336 27L56.001 27.1376L56.1076 27.55H56.5336V27ZM52.7729 12.4416L53.3054 12.3041L53.1989 11.8916H52.7729V12.4416ZM52.7159 12.4416V11.8916H52.1659V12.4416H52.7159ZM52.7159 27V27.55H53.2659V27H52.7159ZM49.9239 27H49.3739V27.55H49.9239V27ZM49.9239 7.057V7.607H53.8555V7.057V6.507H49.9239V7.057ZM53.8555 7.057L53.3226 7.19308L56.371 19.1304L56.9039 18.9943L57.4368 18.8582L54.3884 6.92091L53.8555 7.057ZM56.9039 18.9943V19.5443H56.9609V18.9943V18.4443H56.9039V18.9943ZM56.9609 18.9943H57.5109V7.057H56.9609H56.4109V18.9943H56.9609ZM56.9609 7.057V7.607H59.7529V7.057V6.507H56.9609V7.057ZM59.7529 7.057H59.2029V27H59.7529H60.3029V7.057H59.7529ZM59.7529 27V26.45H56.5336V27V27.55H59.7529V27ZM56.5336 27L57.0661 26.8624L53.3054 12.3041L52.7729 12.4416L52.2404 12.5792L56.001 27.1376L56.5336 27ZM52.7729 12.4416V11.8916H52.7159V12.4416V12.9916H52.7729V12.4416ZM52.7159 12.4416H52.1659V27H52.7159H53.2659V12.4416H52.7159ZM52.7159 27V26.45H49.9239V27V27.55H52.7159V27ZM49.9239 27H50.4739V7.057H49.9239H49.3739V27H49.9239ZM63.6207 26.0029L63.2145 26.3737L63.2186 26.3781L63.6207 26.0029ZM63.6207 8.08264L64.0228 8.45794L64.0268 8.45349L63.6207 8.08264ZM70.5722 8.08264L70.166 8.45351L70.1702 8.45791L70.5722 8.08264ZM71.7688 13.4957V14.0457H72.3188V13.4957H71.7688ZM68.8059 13.4957H68.2559V14.0457H68.8059V13.4957ZM68.8059 18.5954H69.3559V18.0454H68.8059V18.5954ZM67.2389 18.5954H66.6889V19.1454H67.2389V18.5954ZM67.2389 15.7464V15.1964H66.6889V15.7464H67.2389ZM71.7688 15.7464H72.3188V15.1964H71.7688V15.7464ZM70.5722 26.0029L70.9743 26.3781L70.9784 26.3737L70.5722 26.0029ZM67.0965 27.2849V26.7349C65.6813 26.7349 64.6876 26.3399 64.0228 25.6276L63.6207 26.0029L63.2186 26.3781C64.1492 27.3752 65.4727 27.8349 67.0965 27.8349V27.2849ZM63.6207 26.0029L64.0268 25.632C63.3509 24.8917 62.9741 23.7984 62.9741 22.2707H62.4241H61.8741C61.8741 23.9718 62.295 25.3667 63.2145 26.3737L63.6207 26.0029ZM62.4241 22.2707H62.9741V11.7863H62.4241H61.8741V22.2707H62.4241ZM62.4241 11.7863H62.9741C62.9741 10.2576 63.3512 9.1774 64.0228 8.45791L63.6207 8.08264L63.2186 7.70736C62.2947 8.69727 61.8741 10.0862 61.8741 11.7863H62.4241ZM63.6207 8.08264L64.0268 8.45349C64.6926 7.72435 65.6849 7.3221 67.0965 7.3221V6.7721V6.2221C65.4691 6.2221 64.1442 6.69354 63.2145 7.71179L63.6207 8.08264ZM67.0965 6.7721V7.3221C68.508 7.3221 69.5003 7.72435 70.1661 8.45349L70.5722 8.08264L70.9784 7.71179C70.0487 6.69354 68.7238 6.2221 67.0965 6.2221V6.7721ZM70.5722 8.08264L70.1702 8.45791C70.8417 9.1774 71.2188 10.2576 71.2188 11.7863H71.7688H72.3188C72.3188 10.0862 71.8982 8.69727 70.9743 7.70736L70.5722 8.08264ZM71.7688 11.7863H71.2188V13.4957H71.7688H72.3188V11.7863H71.7688ZM71.7688 13.4957V12.9457H68.8059V13.4957V14.0457H71.7688V13.4957ZM68.8059 13.4957H69.3559V11.5869H68.8059H68.2559V13.4957H68.8059ZM68.8059 11.5869H69.3559C69.3559 10.8697 69.2099 10.2295 68.8239 9.76227C68.4213 9.2749 67.8386 9.0711 67.1819 9.0711V9.6211V10.1711C67.6078 10.1711 67.8371 10.2949 67.9758 10.4628C68.1312 10.6509 68.2559 10.9936 68.2559 11.5869H68.8059ZM67.1819 9.6211V9.0711C66.5252 9.0711 65.9426 9.2749 65.5399 9.76227C65.154 10.2295 65.008 10.8697 65.008 11.5869H65.558H66.108C66.108 10.9936 66.2327 10.6509 66.388 10.4628C66.5267 10.2949 66.756 10.1711 67.1819 10.1711V9.6211ZM65.558 11.5869H65.008V22.4986H65.558H66.108V11.5869H65.558ZM65.558 22.4986H65.008C65.008 23.2078 65.1546 23.8422 65.5425 24.3049C65.9459 24.7862 66.5279 24.9859 67.1819 24.9859V24.4359V23.8859C66.7534 23.8859 66.5233 23.7627 66.3855 23.5983C66.232 23.4152 66.108 23.0809 66.108 22.4986H65.558ZM67.1819 24.4359V24.9859C67.836 24.9859 68.4179 24.7862 68.8214 24.3049C69.2093 23.8422 69.3559 23.2078 69.3559 22.4986H68.8059H68.2559C68.2559 23.0809 68.1318 23.4152 67.9784 23.5983C67.8405 23.7627 67.6105 23.8859 67.1819 23.8859V24.4359ZM68.8059 22.4986H69.3559V18.5954H68.8059H68.2559V22.4986H68.8059ZM68.8059 18.5954V18.0454H67.2389V18.5954V19.1454H68.8059V18.5954ZM67.2389 18.5954H67.7889V15.7464H67.2389H66.6889V18.5954H67.2389ZM67.2389 15.7464V16.2964H71.7688V15.7464V15.1964H67.2389V15.7464ZM71.7688 15.7464H71.2188V22.2707H71.7688H72.3188V15.7464H71.7688ZM71.7688 22.2707H71.2188C71.2188 23.7984 70.842 24.8917 70.1661 25.632L70.5722 26.0029L70.9784 26.3737C71.8979 25.3667 72.3188 23.9718 72.3188 22.2707H71.7688ZM70.5722 26.0029L70.1702 25.6276C69.5053 26.3399 68.5116 26.7349 67.0965 26.7349V27.2849V27.8349C68.7202 27.8349 70.0437 27.3752 70.9743 26.3781L70.5722 26.0029ZM74.9775 26.0029L74.5669 26.3688L74.5709 26.3733L74.9775 26.0029ZM73.8094 21.1311V20.5811H73.2594V21.1311H73.8094ZM76.7724 21.1311H77.3224V20.5811H76.7724V21.1311ZM79.5929 23.9801L79.1805 23.6162L79.179 23.6179L79.5929 23.9801ZM79.4504 20.2479L78.9763 20.5268L78.9801 20.5329L79.4504 20.2479ZM77.3422 17.9402L76.9783 18.3526L76.9811 18.355L77.3422 17.9402ZM74.6356 14.8633L74.1539 15.1287L74.1562 15.1329L74.6356 14.8633ZM75.063 8.08264L75.4651 8.45794L75.4691 8.45349L75.063 8.08264ZM81.9291 8.08264L81.5139 8.44363L81.5225 8.45306L81.9291 8.08264ZM83.0971 12.6126V13.1626H83.6471V12.6126H83.0971ZM80.1342 12.6126H79.5842V13.1626H80.1342V12.6126ZM79.7353 10.1054L79.3108 10.4551L79.316 10.4614L79.3214 10.4676L79.7353 10.1054ZM77.5701 13.5527L77.0996 13.8379L77.1061 13.848L77.5701 13.5527ZM79.7068 15.8319L79.3457 16.2468L79.3459 16.247L79.7068 15.8319ZM82.4134 18.9373L81.9275 19.1951L81.9275 19.1951L82.4134 18.9373ZM81.9291 25.9744L81.5272 25.5987L81.5229 25.6035L81.9291 25.9744ZM78.4248 27.2849V26.7349C77.0088 26.7349 76.0284 26.3397 75.3841 25.6324L74.9775 26.0029L74.5709 26.3733C75.484 27.3754 76.8018 27.8349 78.4248 27.8349V27.2849ZM74.9775 26.0029L75.3881 25.6369C74.7283 24.8966 74.3594 23.8015 74.3594 22.2707H73.8094H73.2594C73.2594 23.9687 73.6692 25.3617 74.5669 26.3688L74.9775 26.0029ZM73.8094 22.2707H74.3594V21.1311H73.8094H73.2594V22.2707H73.8094ZM73.8094 21.1311V21.6811H76.7724V21.1311V20.5811H73.8094V21.1311ZM76.7724 21.1311H76.2224V22.4986H76.7724H77.3224V21.1311H76.7724ZM76.7724 22.4986H76.2224C76.2224 23.2078 76.369 23.8422 76.7568 24.3049C77.1603 24.7862 77.7422 24.9859 78.3963 24.9859V24.4359V23.8859C77.9677 23.8859 77.7377 23.7627 77.5999 23.5983C77.4464 23.4152 77.3224 23.0809 77.3224 22.4986H76.7724ZM78.3963 24.4359V24.9859C79.0334 24.9859 79.6058 24.8005 80.0068 24.3422L79.5929 23.9801L79.179 23.6179C79.0481 23.7674 78.8228 23.8859 78.3963 23.8859V24.4359ZM79.5929 23.9801L80.0053 24.344C80.4201 23.8738 80.5702 23.199 80.5702 22.4416H80.0202H79.4702C79.4702 23.0897 79.3354 23.4406 79.1805 23.6162L79.5929 23.9801ZM80.0202 22.4416H80.5702C80.5702 21.5198 80.3597 20.6871 79.9208 19.9628L79.4504 20.2479L78.9801 20.5329C79.3008 21.0622 79.4702 21.692 79.4702 22.4416H80.0202ZM79.4504 20.2479L79.9245 19.969C79.4994 19.2463 78.7434 18.4307 77.7033 17.5253L77.3422 17.9402L76.9811 18.355C77.9922 19.2351 78.6417 19.9579 78.9764 20.5267L79.4504 20.2479ZM77.3422 17.9402L77.7061 17.5278C76.4349 16.4061 75.5844 15.4281 75.115 14.5936L74.6356 14.8633L74.1562 15.1329C74.7125 16.1218 75.6664 17.195 76.9783 18.3526L77.3422 17.9402ZM74.6356 14.8633L75.1173 14.5978C74.6533 13.7557 74.4164 12.8037 74.4164 11.7294H73.8664H73.3164C73.3164 12.9722 73.5923 14.1095 74.1539 15.1287L74.6356 14.8633ZM73.8664 11.7294H74.4164C74.4164 10.2428 74.7914 9.17962 75.465 8.45791L75.063 8.08264L74.6609 7.70736C73.739 8.69505 73.3164 10.063 73.3164 11.7294H73.8664ZM75.063 8.08264L75.4691 8.45349C76.1349 7.72435 77.1272 7.3221 78.5387 7.3221V6.7721V6.2221C76.9114 6.2221 75.5865 6.69354 74.6568 7.71179L75.063 8.08264ZM78.5387 6.7721V7.3221C79.9303 7.3221 80.8878 7.72333 81.514 8.44354L81.9291 8.08264L82.3441 7.72174C81.4509 6.69456 80.1481 6.2221 78.5387 6.2221V6.7721ZM81.9291 8.08264L81.5225 8.45306C82.1779 9.17239 82.5471 10.2545 82.5471 11.7863H83.0971H83.6471C83.6471 10.0893 83.2377 8.70229 82.3356 7.71222L81.9291 8.08264ZM83.0971 11.7863H82.5471V12.6126H83.0971H83.6471V11.7863H83.0971ZM83.0971 12.6126V12.0626H80.1342V12.6126V13.1626H83.0971V12.6126ZM80.1342 12.6126H80.6842V11.5869H80.1342H79.5842V12.6126H80.1342ZM80.1342 11.5869H80.6842C80.6842 10.855 80.5462 10.1969 80.1492 9.74325L79.7353 10.1054L79.3214 10.4676C79.4563 10.6218 79.5842 10.9513 79.5842 11.5869H80.1342ZM79.7353 10.1054L80.1599 9.75579C79.7661 9.2776 79.2036 9.0711 78.5672 9.0711V9.6211V10.1711C78.9565 10.1711 79.1728 10.2875 79.3108 10.4551L79.7353 10.1054ZM78.5672 9.6211V9.0711C77.9284 9.0711 77.3596 9.27092 76.9669 9.74934C76.5912 10.207 76.4503 10.8324 76.4503 11.5299H77.0003H77.5503C77.5503 10.955 77.6705 10.6259 77.8171 10.4473C77.9467 10.2894 78.1615 10.1711 78.5672 10.1711V9.6211ZM77.0003 11.5299H76.4503C76.4503 12.3538 76.6686 13.1264 77.0997 13.8378L77.5701 13.5527L78.0404 13.2677C77.7118 12.7254 77.5503 12.1495 77.5503 11.5299H77.0003ZM77.5701 13.5527L77.1061 13.848C77.5477 14.542 78.3075 15.3431 79.3457 16.2468L79.7068 15.8319L80.0679 15.4171C79.0549 14.5354 78.3902 13.817 78.0341 13.2574L77.5701 13.5527ZM79.7068 15.8319L79.3459 16.247C80.6342 17.3672 81.4793 18.3504 81.9275 19.1951L82.4134 18.9373L82.8992 18.6795C82.3598 17.663 81.4005 16.5758 80.0677 15.4169L79.7068 15.8319ZM82.4134 18.9373L81.9275 19.1951C82.3719 20.0326 82.6041 21.033 82.6041 22.2137H83.1541H83.7041C83.7041 20.8872 83.4425 19.7034 82.8992 18.6795L82.4134 18.9373ZM83.1541 22.2137H82.6041C82.6041 23.7594 82.2185 24.8593 81.5273 25.5988L81.9291 25.9744L82.3308 26.3499C83.273 25.342 83.7041 23.9348 83.7041 22.2137H83.1541ZM81.9291 25.9744L81.5229 25.6035C80.8584 26.3313 79.8578 26.7349 78.4248 26.7349V27.2849V27.8349C80.0687 27.8349 81.4042 27.3648 82.3352 26.3452L81.9291 25.9744Z"
        fill="white" />
    <path
        d="M140.501 24.2595L135.578 26.8315C134.518 27.3862 133.279 26.4909 133.481 25.3166L134.421 19.867L130.438 16.007C129.58 15.1758 130.054 13.7273 131.239 13.5551L136.743 12.7603L139.204 7.80155C139.734 6.73282 141.266 6.73282 141.796 7.80155L144.257 12.7603L149.761 13.5551C150.946 13.726 151.42 15.1744 150.562 16.007L146.579 19.867L147.519 25.3166C147.721 26.491 146.482 27.3862 145.422 26.8315L140.501 24.2595Z"
        fill="url(#paint1_linear_7563_1841)" />
    <defs>
        <linearGradient gradientUnits="userSpaceOnUse" id="paint0_linear_7563_1841" x1="83" x2="83" y1="0"
            y2="34">
            <stop stop-color="#FFC600" />
            <stop offset="1" stop-color="#FFA929" />
        </linearGradient>
        <linearGradient gradientUnits="userSpaceOnUse" id="paint1_linear_7563_1841" x1="140.5" x2="140.5" y1="26.9995"
            y2="7.00047">
            <stop stop-color="#FFF7B4" />
            <stop offset="1" stop-color="white" />
        </linearGradient>
    </defs>
</svg>
