<svg width="24" height="24" viewBox="0 0 24 24" fill="none" xmlns="http://www.w3.org/2000/svg">
    <path d="M8.90918 3.16992L9.18945 3.4502L9.25977 4.00977L9.0498 4.5H8.90918V4.63965L8.76953 4.70996L5.12988 4.7793L4.21973 5.05957L3.58984 5.47949L3.16992 5.96973L2.82031 6.80957L2.75 7.2998V18.5684L2.88965 19.4082L3.24023 20.1787L3.66016 20.668L4.29004 20.9482L4.84961 21.1582L5.33984 21.2285H16.5391L17.3789 21.0879L18.2188 20.668L18.709 20.1084L19.0586 19.4082L19.1982 18.8486L19.2686 15.209L19.6182 14.8584L19.9688 14.7188L20.5283 14.7891L20.668 15.0684H20.8086L20.8779 15.209V19.1289L20.5986 20.3184L20.1787 21.0879L19.4082 21.9287L18.709 22.418L17.9385 22.7686L16.959 22.9785H4.98926L4.00977 22.7686L3.37988 22.4883L2.61035 21.998L2.0498 21.4385L1.55957 20.7383L1.28027 20.1787L1.07031 19.4785L1 18.9883V6.94922L1.13965 6.25L1.62988 5.12988L2.18945 4.42969L2.88965 3.7998L3.66016 3.37988L4.84961 3.09961H8.69922L8.90918 3.16992ZM22.7686 1.28027L22.9785 1.76953V8.20898L22.7686 8.55957L22.418 8.83887H21.7881L21.3682 8.48926L21.2979 8.34961L21.2285 3.93945L20.668 4.5L20.1787 5.05957L19.2686 5.96973L18.708 6.45996L17.7285 7.43945L17.2383 7.99902L16.3291 8.90918L15.7686 9.39941L14.7891 10.3789L14.2988 10.9395L13.8086 11.4287L13.459 11.5693L12.8994 11.499L12.5488 11.2188L12.4092 10.8691L12.4785 10.3096L12.9688 9.74902L13.5293 9.18945L14.0889 8.69922L14.999 7.78906L15.4883 7.22949L16.3984 6.31934L16.959 5.8291L17.8682 4.91992L18.3584 4.35938L19.3389 3.37988L19.8984 2.88965L20.0381 2.75L15.6289 2.67969L15.2783 2.39941L15.1387 2.12012V1.62988L15.3486 1.28027L15.6289 1.07031L15.8389 1H22.208L22.7686 1.28027Z" fill="black"/>
</svg>
