<svg width="40" height="36" viewBox="0 0 40 36" fill="none" xmlns="http://www.w3.org/2000/svg">
<path d="M34.0004 7.99951H28.0004V4.99951C28.0004 3.67343 27.4736 2.40166 26.5359 1.46398C25.5982 0.526296 24.3264 -0.000488281 23.0004 -0.000488281H17.0004C15.6743 -0.000488281 14.4025 0.526296 13.4648 1.46398C12.5272 2.40166 12.0004 3.67343 12.0004 4.99951V7.99951H6.00037C4.40907 7.99951 2.88294 8.63165 1.75773 9.75687C0.632507 10.8821 0.000366211 12.4082 0.000366211 13.9995V29.9995C0.000366211 31.5908 0.632507 33.1169 1.75773 34.2422C2.88294 35.3674 4.40907 35.9995 6.00037 35.9995H34.0004C35.5917 35.9995 37.1178 35.3674 38.243 34.2422C39.3682 33.1169 40.0004 31.5908 40.0004 29.9995V13.9995C40.0004 12.4082 39.3682 10.8821 38.243 9.75687C37.1178 8.63165 35.5917 7.99951 34.0004 7.99951ZM16.0004 4.99951C16.0004 4.7343 16.1057 4.47994 16.2933 4.29241C16.4808 4.10487 16.7351 3.99951 17.0004 3.99951H23.0004C23.2656 3.99951 23.5199 4.10487 23.7075 4.29241C23.895 4.47994 24.0004 4.7343 24.0004 4.99951V7.99951H16.0004V4.99951ZM20.0004 28.9995C18.6159 28.9995 17.2625 28.589 16.1114 27.8198C14.9602 27.0506 14.063 25.9574 13.5332 24.6783C13.0034 23.3992 12.8648 21.9917 13.1349 20.6339C13.405 19.276 14.0717 18.0287 15.0506 17.0498C16.0296 16.0708 17.2769 15.4041 18.6347 15.134C19.9926 14.8639 21.4001 15.0025 22.6791 15.5324C23.9582 16.0622 25.0515 16.9594 25.8207 18.1105C26.5898 19.2617 27.0004 20.615 27.0004 21.9995C27.0004 23.856 26.2629 25.6365 24.9501 26.9493C23.6374 28.262 21.8569 28.9995 20.0004 28.9995Z" fill="#456E34"/>
</svg>
