<svg width="39" height="39" viewBox="0 0 39 39" fill="none" xmlns="http://www.w3.org/2000/svg">
<path d="M33.1111 2H5.88889C3.74111 2 2 3.74111 2 5.88889V33.1111C2 35.2589 3.74111 37 5.88889 37H33.1111C35.2589 37 37 35.2589 37 33.1111V5.88889C37 3.74111 35.2589 2 33.1111 2Z" fill="#456E34" stroke="white" stroke-width="3" stroke-linecap="round" stroke-linejoin="round"/>
<path d="M12.6945 17.1112C15.1338 17.1112 17.1112 15.1338 17.1112 12.6945C17.1112 10.2552 15.1338 8.27783 12.6945 8.27783C10.2552 8.27783 8.27783 10.2552 8.27783 12.6945C8.27783 15.1338 10.2552 17.1112 12.6945 17.1112Z" fill="#456E34" stroke="white" stroke-width="3" stroke-linecap="round" stroke-linejoin="round"/>
<path d="M37 25.3333L27.2778 15.6111L5.88892 37" fill="#456E34"/>
<path d="M37 25.3333L27.2778 15.6111L5.88892 37" stroke="white" stroke-width="3" stroke-linecap="round" stroke-linejoin="round"/>
</svg>
