<svg width="30" height="36" viewBox="0 0 30 36" fill="none" xmlns="http://www.w3.org/2000/svg">
<path d="M18.25 2H5.25C4.38805 2 3.5614 2.34241 2.9519 2.9519C2.34241 3.5614 2 4.38805 2 5.25V31.25C2 32.112 2.34241 32.9386 2.9519 33.5481C3.5614 34.1576 4.38805 34.5 5.25 34.5H24.75C25.612 34.5 26.4386 34.1576 27.0481 33.5481C27.6576 32.9386 28 32.112 28 31.25V11.75L18.25 2Z" fill="#456E34" stroke="white" stroke-width="3" stroke-linecap="round" stroke-linejoin="round"/>
<path d="M18.25 2V11.75H28" fill="#456E34"/>
<path d="M18.25 2V11.75H28" stroke="white" stroke-width="3" stroke-linecap="round" stroke-linejoin="round"/>
<path d="M21.5 19.875H8.5" stroke="white" stroke-width="3" stroke-linecap="round" stroke-linejoin="round"/>
<path d="M21.5 26.375H8.5" stroke="white" stroke-width="3" stroke-linecap="round" stroke-linejoin="round"/>
<path d="M11.75 13.375H10.125H8.5" fill="#456E34"/>
<path d="M11.75 13.375H10.125H8.5" stroke="white" stroke-width="3" stroke-linecap="round" stroke-linejoin="round"/>
</svg>
