<svg width="24" height="24" viewBox="0 0 24 24" fill="none" xmlns="http://www.w3.org/2000/svg">
<path d="M19.5 12.572L12 20L4.5 12.572C4.0053 12.0906 3.61564 11.512 3.35554 10.8726C3.09545 10.2333 2.97056 9.54695 2.98873 8.85693C3.00691 8.16692 3.16776 7.48814 3.46115 6.86334C3.75455 6.23854 4.17413 5.68126 4.69348 5.22658C5.21283 4.77191 5.8207 4.42969 6.47881 4.22148C7.13691 4.01327 7.831 3.94359 8.51736 4.0168C9.20373 4.09002 9.8675 4.30456 10.4669 4.64691C11.0662 4.98926 11.5882 5.452 12 6.006C12.4135 5.45602 12.9361 4.99732 13.5351 4.65861C14.1341 4.31989 14.7965 4.10845 15.4809 4.03752C16.1654 3.96659 16.8571 4.0377 17.5128 4.24639C18.1685 4.45509 18.774 4.79687 19.2915 5.25036C19.8091 5.70386 20.2274 6.25929 20.5204 6.88189C20.8134 7.5045 20.9747 8.18088 20.9943 8.86871C21.0139 9.55653 20.8913 10.241 20.6341 10.8793C20.377 11.5175 19.9909 12.0958 19.5 12.578" stroke="black" stroke-width="1.5" stroke-linecap="round" stroke-linejoin="round"/>
</svg>
