<svg width="36" height="36" viewBox="0 0 36 36" fill="none" xmlns="http://www.w3.org/2000/svg">
<path d="M22.308 19.4308L32.091 29.2108C31.6988 29.7313 31.1981 30.1603 30.6236 30.468C30.0491 30.7757 29.4146 30.9548 28.764 30.9928L28.5 31.0003H7.5C6.80396 31.0011 6.11726 30.8401 5.49407 30.5301C4.87088 30.22 4.32826 29.7694 3.909 29.2138L13.6905 19.4308L17.1675 21.7483L17.3415 21.8473C17.5466 21.9475 17.7718 21.9996 18 21.9996C18.2282 21.9996 18.4534 21.9475 18.6585 21.8473L18.8325 21.7483L22.308 19.4308Z" fill="#B4B4B4"/>
<path d="M3 12.3028L11.1435 17.7328L3 25.8778V12.3028Z" fill="#B4B4B4"/>
<path d="M33 12.3028V25.8778L24.855 17.7328L33 12.3028Z" fill="#B4B4B4"/>
<path d="M18.66 1.15331L18.8325 1.25231L31.4985 9.69581L18 18.6958L4.5 9.69581L17.1675 1.25081C17.3858 1.10568 17.6384 1.0203 17.9 1.0032C18.1616 0.98609 18.4246 1.03785 18.66 1.15331Z" fill="#B4B4B4"/>
<path d="M22.308 19.4308L32.091 29.2108C31.6988 29.7313 31.1981 30.1603 30.6236 30.468C30.0491 30.7757 29.4146 30.9548 28.764 30.9928L28.5 31.0003H7.5C6.80396 31.0011 6.11726 30.8401 5.49407 30.5301C4.87088 30.22 4.32826 29.7694 3.909 29.2138L13.6905 19.4308L17.1675 21.7483L17.3415 21.8473C17.5466 21.9475 17.7718 21.9996 18 21.9996C18.2282 21.9996 18.4534 21.9475 18.6585 21.8473L18.8325 21.7483L22.308 19.4308Z" stroke="#B4B4B4"/>
<path d="M3 12.3028L11.1435 17.7328L3 25.8778V12.3028Z" stroke="#B4B4B4"/>
<path d="M33 12.3028V25.8778L24.855 17.7328L33 12.3028Z" stroke="#B4B4B4"/>
<path d="M18.66 1.15331L18.8325 1.25231L31.4985 9.69581L18 18.6958L4.5 9.69581L17.1675 1.25081C17.3858 1.10568 17.6384 1.0203 17.9 1.0032C18.1616 0.98609 18.4246 1.03785 18.66 1.15331Z" stroke="#B4B4B4"/>
</svg>
