<svg width="24" height="24" viewBox="0 0 24 24" fill="none" xmlns="http://www.w3.org/2000/svg">
<g clip-path="url(#clip0_6029_1551)">
<path fill-rule="evenodd" clip-rule="evenodd" d="M18.846 3.5926C19.1572 3.80817 19.4689 4.02405 19.7812 4.24019C19.1414 4.75338 18.5134 5.25223 17.8954 5.74326C16.5465 6.81491 15.2444 7.8493 13.9673 8.91417C11.9069 10.6326 9.97488 12.489 8.46408 14.7257C7.66849 15.9041 6.97129 17.1437 7.51849 18.7805C7.14988 18.3659 6.79068 17.9581 6.43671 17.5563C5.64641 16.6592 4.88216 15.7916 4.0973 14.9429C3.3893 14.1773 3.1517 13.2918 3.2345 12.2922C3.3473 10.9458 3.9833 9.80216 4.7477 8.74377C7.20049 5.34418 10.4453 2.81099 13.8905 0.506999C14.0033 0.431399 14.2601 0.436199 14.3741 0.514199C15.8668 1.52922 17.3513 2.55739 18.846 3.5926ZM7.86445 12.3693C7.91708 12.4268 7.96972 12.483 8.02236 12.5392L8.02249 12.5394C8.07973 12.6012 8.13769 12.663 8.19654 12.7257C8.24624 12.7787 8.29659 12.8324 8.34769 12.8874L8.35836 12.8987C8.41135 12.9551 8.46539 13.0126 8.52048 13.0722C8.54795 13.0387 8.57423 13.0065 8.6005 12.9742L8.60088 12.9738C8.63015 12.9378 8.65906 12.9019 8.6878 12.8662C8.7109 12.8375 8.73389 12.8089 8.75688 12.7806C8.88408 12.6222 9.00888 12.4674 9.14808 12.2958L8.82288 11.9526C8.75324 11.8791 8.68216 11.8038 8.60814 11.7253C8.56483 11.6794 8.52051 11.6324 8.47488 11.5842L7.86445 12.3693ZM6.80569 14.1137C6.78529 14.1569 6.76369 14.2025 6.73969 14.2517C6.8655 14.3722 6.98339 14.4854 7.09823 14.5958C7.18821 14.6822 7.27632 14.7669 7.36489 14.8517C7.91089 14.2157 7.94089 14.1353 7.33249 13.557L7.31726 13.5426C7.28096 13.5084 7.24271 13.4724 7.20169 13.4346C7.17631 13.4731 7.15094 13.5108 7.12583 13.5481C7.09158 13.5991 7.05784 13.6492 7.02529 13.6997C7.02118 13.7059 7.01702 13.7121 7.01285 13.7182C6.99753 13.7409 6.9821 13.7638 6.96889 13.7874C6.93289 13.8521 6.89929 13.9181 6.86329 13.9937L6.85969 14.0012C6.84273 14.0362 6.82474 14.0734 6.80569 14.1137ZM6.23875 15.8464C6.23534 15.8679 6.23209 15.8884 6.23209 15.9089H6.23329C6.22491 16.121 6.38875 16.2517 6.82633 16.6008L6.82849 16.6025C6.87649 16.5281 6.91129 16.4597 6.93409 16.3949C7.05248 16.0568 6.84172 15.8387 6.62248 15.6118C6.54839 15.5351 6.47334 15.4574 6.40969 15.3737L6.40256 15.3906C6.31762 15.5914 6.25914 15.7297 6.23929 15.8429L6.23875 15.8464ZM4.3613 13.7717C4.4465 13.6182 4.4837 13.4862 4.4837 13.371H4.4825C4.4849 13.1394 4.3457 12.9726 4.1813 12.8154C4.1485 12.7845 4.11475 12.7537 4.08089 12.7229C4.02927 12.6759 3.97737 12.6287 3.9281 12.5802C3.8513 12.771 3.8009 12.9066 3.7865 13.0194C3.7817 13.065 3.7817 13.1058 3.7889 13.1454C3.8201 13.3242 3.9881 13.4694 4.3613 13.7717ZM5.1377 11.391C5.1581 11.3406 5.1701 11.295 5.1725 11.253H5.1713C5.1725 11.2314 5.1713 11.211 5.1677 11.1906C5.1389 11.0298 4.9553 10.893 4.5893 10.6302C4.57647 10.6518 4.56401 10.6728 4.55192 10.6931C4.48826 10.8002 4.43505 10.8897 4.3937 10.9674L4.39365 10.9674C4.37807 10.9986 4.36369 11.0274 4.3505 11.055C4.2377 11.3022 4.2785 11.4222 4.5149 11.6418C4.53508 11.6601 4.55666 11.6791 4.57964 11.6994C4.58673 11.7057 4.59395 11.7121 4.6013 11.7186C4.65497 11.766 4.71574 11.8171 4.78438 11.8747C4.79554 11.8841 4.80692 11.8936 4.8185 11.9034L4.82461 11.8945C4.94757 11.7165 5.04027 11.5823 5.0993 11.4714C5.1149 11.4426 5.1269 11.4162 5.1377 11.391ZM6.36869 9.4612C6.38803 9.43589 6.40726 9.41072 6.42649 9.38577L6.42529 9.38697C6.38103 9.33574 6.33758 9.28554 6.29437 9.2356C6.23332 9.16506 6.17272 9.09503 6.11089 9.02337C6.02973 8.92929 5.94644 8.83309 5.85612 8.72877C5.82893 8.69736 5.8011 8.66522 5.77249 8.63217C5.7556 8.65905 5.7387 8.68543 5.72212 8.71133C5.7128 8.7259 5.70357 8.74031 5.69449 8.75457C5.66929 8.79417 5.64529 8.83137 5.62129 8.86857C5.5265 9.01617 5.4437 9.14577 5.3609 9.27657C5.35524 9.28555 5.34958 9.29464 5.34389 9.30376C5.32908 9.32752 5.3141 9.35155 5.2985 9.37497C5.2781 9.40737 5.2565 9.44097 5.2349 9.47457C5.4281 9.67857 5.61649 9.87656 5.85529 10.1274C5.88305 10.0906 5.91082 10.0548 5.9382 10.0195C5.96172 9.98924 5.98496 9.9593 6.00769 9.92936C6.10729 9.80097 6.20089 9.67977 6.29209 9.56097C6.31794 9.52764 6.3434 9.49431 6.36869 9.4612ZM7.56793 7.81257C7.66734 7.70749 7.76917 7.59985 7.87729 7.48497L7.87609 7.48617C7.77275 7.39309 7.67044 7.30156 7.57292 7.21431C7.5221 7.16884 7.47258 7.12453 7.42489 7.08178C7.40009 7.05893 7.37529 7.0368 7.35107 7.01519C7.33076 6.99706 7.31085 6.97929 7.29169 6.96178C7.22693 7.01645 7.16335 7.06995 7.10042 7.1229C7.02108 7.18965 6.94279 7.25552 6.86449 7.32177C6.76324 7.40745 6.66075 7.49374 6.5543 7.58336C6.51314 7.61802 6.47139 7.65317 6.42889 7.68897C6.61729 7.86777 6.77569 8.01777 6.93409 8.16657L6.94123 8.17338C6.99056 8.22042 7.04098 8.26849 7.09249 8.31657C7.12763 8.27951 7.16243 8.24246 7.19689 8.20577C7.22715 8.17354 7.25715 8.14159 7.28689 8.11017C7.3806 8.01061 7.47316 7.91276 7.56793 7.81257ZM9.43608 6.18298C9.58368 6.05698 9.73008 5.93338 9.87648 5.80978C9.78528 5.70778 9.70368 5.61898 9.62928 5.54338C9.55488 5.46778 9.48768 5.40418 9.42528 5.35498C9.30048 5.25538 9.19368 5.20978 9.08568 5.21698C9.00408 5.22298 8.92248 5.25898 8.83008 5.32618C8.73888 5.39338 8.63688 5.49178 8.51688 5.62258C8.43648 5.71018 8.34768 5.81098 8.24929 5.92618C8.37528 6.03418 8.49528 6.13738 8.61528 6.24058C8.63722 6.25944 8.65916 6.27847 8.68121 6.29759C8.71948 6.33078 8.7581 6.36428 8.79768 6.39778C8.8143 6.41211 8.83109 6.42663 8.84806 6.44129C8.8936 6.48064 8.9404 6.52109 8.98848 6.56218C9.13968 6.43378 9.28848 6.30778 9.43608 6.18298ZM10.8419 10.353L10.8521 10.3434C10.6289 10.137 10.4021 9.92696 10.1309 9.67496C10.0816 9.72858 10.0326 9.78163 9.98417 9.83418C9.91115 9.91335 9.83916 9.99139 9.76848 10.0686C9.71421 10.1284 9.65995 10.1872 9.60662 10.2449L9.59328 10.2594L9.42048 10.4466C9.47568 10.5114 9.52968 10.575 9.58248 10.6374C9.65001 10.7181 9.71553 10.7953 9.77807 10.869C9.81221 10.9092 9.84547 10.9484 9.87768 10.9866C9.88808 10.9989 9.89843 11.0111 9.90869 11.0233C9.94341 11.0645 9.97726 11.1046 10.0097 11.1426C10.0517 11.1018 10.0925 11.0634 10.1321 11.0262C10.2555 10.9087 10.3667 10.8036 10.4724 10.7036C10.5352 10.6442 10.5961 10.5866 10.6565 10.5294C10.7179 10.4702 10.7794 10.4121 10.8419 10.353ZM11.7904 4.33984C11.9575 4.22141 12.1224 4.10449 12.2861 3.98819C12.2177 3.88139 12.1529 3.78899 12.0905 3.70979C11.9033 3.47219 11.7341 3.35459 11.5409 3.35939C11.2841 3.36539 10.9853 3.58979 10.5461 4.03619C10.7649 4.20154 10.9806 4.36373 11.2015 4.5298C11.2531 4.56862 11.305 4.60765 11.3573 4.64698C11.4067 4.61233 11.4547 4.57812 11.5025 4.54409C11.5325 4.52274 11.5624 4.50146 11.5925 4.48018C11.6588 4.43313 11.7248 4.38637 11.7904 4.33984ZM12.6411 8.79853C12.746 8.70839 12.8549 8.6148 12.9713 8.51457L12.9725 8.51337C12.8933 8.44617 12.8177 8.38257 12.7445 8.32137C12.6154 8.21153 12.494 8.10928 12.3725 8.00703C12.3573 7.99421 12.3421 7.9814 12.3269 7.96857L12.1205 7.79457C12.0876 7.82564 12.0551 7.8567 12.0227 7.88762C11.9888 7.92001 11.955 7.95225 11.9213 7.98417C11.8497 8.05188 11.7784 8.1196 11.7065 8.18789C11.6459 8.24546 11.5849 8.30344 11.5229 8.36217L11.3153 8.55897C11.5889 8.80497 11.8337 9.02457 12.1013 9.26337L12.3101 9.08337C12.4186 8.98977 12.5275 8.89618 12.6411 8.79853ZM14.6153 2.50019C14.7881 2.40179 14.9825 2.25419 15.2141 2.05619V2.05499C14.9765 1.87619 14.7977 1.74179 14.6477 1.65179C14.5721 1.60619 14.5049 1.5726 14.4401 1.551C14.3753 1.5294 14.3141 1.5186 14.2529 1.5186C14.0069 1.5198 13.7525 1.70219 13.2449 2.06819C13.2893 2.11619 13.3325 2.16179 13.3745 2.20379C13.4585 2.28899 13.5365 2.36219 13.6121 2.42219C13.6493 2.45219 13.6865 2.47979 13.7225 2.50379C13.7945 2.55299 13.8653 2.58899 13.9361 2.61299C14.0069 2.63699 14.0765 2.64899 14.1485 2.64899C14.2205 2.64899 14.2949 2.63699 14.3717 2.61179C14.4485 2.58659 14.5289 2.54939 14.6153 2.50019ZM14.9591 6.76933C15.089 6.66956 15.2249 6.56524 15.3713 6.45298L15.3701 6.45178C15.3374 6.42358 15.3056 6.39579 15.2743 6.36849C15.2297 6.32957 15.1863 6.29165 15.1433 6.25498C15.051 6.17558 14.9631 6.09952 14.8755 6.0238C14.8241 5.97935 14.7728 5.93501 14.7209 5.89018C14.679 5.85333 14.6362 5.81648 14.5928 5.77911C14.5641 5.75441 14.5352 5.72949 14.5061 5.70418C14.4683 5.73478 14.4308 5.76538 14.3933 5.79598C14.3558 5.82658 14.3183 5.85718 14.2805 5.88778C14.062 6.06653 13.8412 6.24528 13.6027 6.43842L13.5833 6.45418C13.6573 6.51612 13.7284 6.57567 13.7979 6.63388C13.9425 6.75495 14.0802 6.87025 14.2229 6.98938C14.2787 7.03658 14.3362 7.08457 14.3945 7.13332C14.4088 7.14529 14.4232 7.15731 14.4377 7.16937C14.6082 7.0387 14.7779 6.90843 14.9591 6.76933ZM18.154 4.49698C18.064 4.38658 17.9836 4.28939 17.9092 4.20659L17.9116 4.20779C17.8361 4.12379 17.7676 4.05419 17.7016 3.99779C17.668 3.97019 17.6356 3.94499 17.6045 3.92339C17.5085 3.85859 17.4173 3.82379 17.3213 3.81779C17.0645 3.80219 16.7681 3.99539 16.2581 4.38778C16.3481 4.45018 16.4357 4.51138 16.5209 4.57138C16.6058 4.63124 16.6884 4.6887 16.771 4.74616L16.7717 4.74658C16.9361 4.86178 17.0957 4.97338 17.2589 5.08738C17.5576 4.88976 17.8406 4.7034 18.1264 4.51521L18.154 4.49698ZM18.0354 15.4391C18.2417 15.208 18.4499 14.9748 18.6604 14.739V14.7378C18.0249 14.2489 17.3572 13.7356 16.6697 13.207C15.6812 12.4471 14.6515 11.6555 13.6168 10.8594C11.8517 12.4314 10.5653 13.8558 9.54166 15.357C9.31966 15.7458 9.12286 16.1514 8.95246 16.5774C8.77846 17.0142 8.64767 17.4534 8.58767 17.8889C8.56127 18.0845 8.54687 18.2777 8.55167 18.4709C8.56247 19.1177 8.76166 19.7477 9.24286 20.3321C10.0238 21.2807 10.8497 22.1929 11.7059 23.1387C12.0943 23.5677 12.4889 24.0036 12.8884 24.4529C12.5729 23.3897 12.5801 22.9841 12.9604 22.0109C13.5947 20.3902 14.7335 19.1239 15.8718 17.8583C15.9201 17.8046 15.9685 17.7508 16.0168 17.6969C16.6838 16.9534 17.3494 16.2077 18.0354 15.4391Z" fill="#010101"/>
</g>
<defs>
<clipPath id="clip0_6029_1551">
<rect width="24" height="24" fill="white"/>
</clipPath>
</defs>
</svg>
