<svg width="114" height="102" viewBox="0 0 114 102" fill="none" xmlns="http://www.w3.org/2000/svg">
<path d="M103.694 54.6081L57.0518 101L10.4093 54.6081C7.33282 51.6016 4.9095 47.9879 3.29198 43.9946C1.67445 40.0013 0.897747 35.715 1.01078 31.4055C1.12382 27.0959 2.12414 22.8566 3.94876 18.9544C5.77338 15.0521 8.38277 11.5716 11.6126 8.73191C14.8425 5.89222 18.6228 3.75489 22.7156 2.45451C26.8083 1.15414 31.1248 0.718895 35.3933 1.17618C39.6618 1.63346 43.7898 2.97337 47.5173 5.11153C51.2448 7.24969 54.4911 10.1398 57.0518 13.5998C59.6236 10.1649 62.8737 7.30006 66.5986 5.18459C70.3236 3.06912 74.4432 1.74857 78.6997 1.30558C82.9563 0.862584 87.258 1.30669 91.3358 2.6101C95.4135 3.9135 99.1795 6.04815 102.398 8.88045C105.616 11.7127 108.218 15.1817 110.04 19.0702C111.862 22.9588 112.866 27.1832 112.987 31.479C113.109 35.7748 112.347 40.0497 110.748 44.0359C109.148 48.0222 106.747 51.6341 103.694 54.6455" fill="#D71920"/>
<path d="M103.694 54.6081L57.0518 101L10.4093 54.6081C7.33282 51.6016 4.9095 47.9879 3.29198 43.9946C1.67445 40.0013 0.897747 35.715 1.01078 31.4055C1.12382 27.0959 2.12414 22.8566 3.94876 18.9544C5.77338 15.0521 8.38277 11.5716 11.6126 8.73191C14.8425 5.89222 18.6228 3.75489 22.7156 2.45451C26.8083 1.15414 31.1248 0.718895 35.3933 1.17618C39.6618 1.63346 43.7898 2.97337 47.5173 5.11153C51.2448 7.24969 54.4911 10.1398 57.0518 13.5998C59.6236 10.1649 62.8737 7.30006 66.5986 5.18459C70.3236 3.06912 74.4432 1.74857 78.6997 1.30558C82.9563 0.862584 87.258 1.30669 91.3358 2.6101C95.4135 3.9135 99.1795 6.04815 102.398 8.88045C105.616 11.7127 108.218 15.1817 110.04 19.0702C111.862 22.9588 112.866 27.1832 112.987 31.479C113.109 35.7748 112.347 40.0497 110.748 44.0359C109.148 48.0222 106.747 51.6341 103.694 54.6456" stroke="#D71920" stroke-width="2" stroke-linecap="round" stroke-linejoin="round"/>
</svg>
