<svg width="24" height="24" viewBox="0 0 24 24" fill="none" xmlns="http://www.w3.org/2000/svg">
<path fill-rule="evenodd" clip-rule="evenodd" d="M18.8943 5.10571C20.7228 6.93419 21.75 9.41414 21.75 12C21.75 14.5859 20.7228 17.0658 18.8943 18.8943C17.0658 20.7228 14.5859 21.75 12 21.75C9.41414 21.75 6.93419 20.7228 5.10571 18.8943C3.27723 17.0658 2.25 14.5859 2.25 12C2.25 9.41414 3.27723 6.93419 5.10571 5.10571C6.93419 3.27723 9.41414 2.25 12 2.25C14.5859 2.25 17.0658 3.27723 18.8943 5.10571ZM20.25 12C20.25 9.81196 19.3808 7.71354 17.8336 6.16637C16.2865 4.61919 14.188 3.75 12 3.75C9.81196 3.75 7.71354 4.61919 6.16637 6.16637C4.61919 7.71354 3.75 9.81196 3.75 12C3.75 14.188 4.61919 16.2865 6.16637 17.8336C7.71354 19.3808 9.81196 20.25 12 20.25C14.188 20.25 16.2865 19.3808 17.8336 17.8336C19.3808 16.2865 20.25 14.188 20.25 12ZM17.75 12C17.75 12.271 17.6039 12.5208 17.3677 12.6537L9.3677 17.1537C9.13547 17.2843 8.85137 17.2819 8.62136 17.1474C8.39136 17.0129 8.25 16.7664 8.25 16.5L8.25 7.5C8.25 7.23355 8.39136 6.98711 8.62137 6.85259C8.85137 6.71808 9.13547 6.71569 9.3677 6.84632L17.3677 11.3463C17.6039 11.4792 17.75 11.729 17.75 12Z" fill="black"/>
</svg>
