<svg width="24" height="24" viewBox="0 0 24 24" fill="none" xmlns="http://www.w3.org/2000/svg">
<path d="M6.979 3.074C7.86407 2.92319 8.77169 2.97294 9.63497 3.21957C10.4982 3.46619 11.2952 3.90341 11.967 4.499L12.004 4.532L12.038 4.502C12.6792 3.93929 13.433 3.51979 14.2492 3.27148C15.0653 3.02317 15.9251 2.95175 16.771 3.062L17.017 3.098C18.0833 3.28211 19.08 3.75115 19.9015 4.45547C20.723 5.15978 21.3387 6.07314 21.6835 7.09883C22.0282 8.12452 22.0892 9.22436 21.8599 10.2819C21.6306 11.3394 21.1196 12.3152 20.381 13.106L20.201 13.291L20.153 13.332L12.703 20.711C12.5311 20.8812 12.3033 20.9832 12.0619 20.9983C11.8205 21.0134 11.5818 20.9404 11.39 20.793L11.296 20.711L3.803 13.289C3.00922 12.5167 2.4447 11.5397 2.17196 10.4663C1.89922 9.39285 1.92891 8.26489 2.25772 7.20731C2.58654 6.14973 3.20166 5.20379 4.03497 4.47427C4.86827 3.74474 5.88723 3.26009 6.979 3.074Z" fill="black"/>
</svg>
