<svg fill="#ffffff" height="200px" id="Layer_1" stroke="#ffffff" transform="matrix(-1, 0, 0, 1, 0, 0)"
    version="1.1" viewBox="0 0 512.029 512.029" width="200px" xmlns="http://www.w3.org/2000/svg"
    xml:space="preserve"><g id="SVGRepo_bgCarrier" stroke-width="0"></g>
    <g id="SVGRepo_tracerCarrier" stroke-linecap="round" stroke-linejoin="round"></g>
    <g id="SVGRepo_iconCarrier"> <g> <g> <path
        d="M385.039,0H126.991C56.862,0,0.015,56.847,0.015,126.976v130.048C0.015,327.153,56.862,384,126.991,384h22.357v106.667 c0,22.934,31.242,29.714,40.748,8.843c11.135-24.448,29.01-47.631,51.842-69.079c14.665-13.776,30.453-25.985,46.231-36.44 c6.534-4.329,11.999-7.676,16.016-9.99h80.855c70.129,0,126.976-56.847,126.976-126.976V126.976 C512.015,56.847,455.167,0,385.039,0z M469.348,257.024c0,46.565-37.745,84.309-84.309,84.309h-86.357 c-3.45,0-6.849,0.837-9.905,2.439c-5.072,2.659-13.497,7.575-24.176,14.651c-17.668,11.707-35.325,25.362-51.876,40.909 c-7.328,6.884-14.246,13.958-20.71,21.224v-57.89c0-11.782-9.551-21.333-21.333-21.333h-43.691 c-46.565,0-84.309-37.745-84.309-84.309V126.976c0-46.565,37.745-84.309,84.309-84.309h258.048 c46.565,0,84.309,37.745,84.309,84.309V257.024z"></path> </g> </g> </g></svg>