<svg width="36" height="36" viewBox="0 0 36 36" fill="none" xmlns="http://www.w3.org/2000/svg">
<path d="M16.5 6.5H19.5M18 26V26.015M9 8C9 7.20435 9.31607 6.44129 9.87868 5.87868C10.4413 5.31607 11.2044 5 12 5H24C24.7956 5 25.5587 5.31607 26.1213 5.87868C26.6839 6.44129 27 7.20435 27 8V29C27 29.7956 26.6839 30.5587 26.1213 31.1213C25.5587 31.6839 24.7956 32 24 32H12C11.2044 32 10.4413 31.6839 9.87868 31.1213C9.31607 30.5587 9 29.7956 9 29V8Z" stroke="#B4B4B4" stroke-width="3" stroke-linecap="round" stroke-linejoin="round"/>
</svg>
